<mxfile host="app.diagrams.net" agent="Mozilla/5.0 (Windows NT 10.0; Win64; x64) AppleWebKit/537.36 (KHTML, like Gecko) Chrome/131.0.0.0 Safari/537.36" version="26.0.3">
  <diagram id="C5RBs43oDa-KdzZeNtuy" name="Page-1">
    <mxGraphModel dx="956" dy="492" grid="1" gridSize="10" guides="1" tooltips="1" connect="1" arrows="1" fold="1" page="1" pageScale="1" pageWidth="827" pageHeight="1169" math="0" shadow="0">
      <root>
        <mxCell id="WIyWlLk6GJQsqaUBKTNV-0" />
        <mxCell id="WIyWlLk6GJQsqaUBKTNV-1" parent="WIyWlLk6GJQsqaUBKTNV-0" />
        <mxCell id="2vzIRdSAfPIQYPzG_P3X-2" value="" style="edgeStyle=orthogonalEdgeStyle;rounded=1;orthogonalLoop=1;jettySize=auto;html=1;" edge="1" parent="WIyWlLk6GJQsqaUBKTNV-1" source="WIyWlLk6GJQsqaUBKTNV-3" target="2vzIRdSAfPIQYPzG_P3X-1">
          <mxGeometry relative="1" as="geometry" />
        </mxCell>
        <mxCell id="WIyWlLk6GJQsqaUBKTNV-3" value="Start" style="rounded=1;html=1;fontSize=14;glass=0;strokeWidth=1;shadow=0;fontFamily=Helvetica;whiteSpace=wrap;" parent="WIyWlLk6GJQsqaUBKTNV-1" vertex="1">
          <mxGeometry x="330" y="50" width="120" height="40" as="geometry" />
        </mxCell>
        <mxCell id="2vzIRdSAfPIQYPzG_P3X-3" value="" style="edgeStyle=orthogonalEdgeStyle;rounded=1;orthogonalLoop=1;jettySize=auto;html=1;" edge="1" parent="WIyWlLk6GJQsqaUBKTNV-1" source="WIyWlLk6GJQsqaUBKTNV-3" target="2vzIRdSAfPIQYPzG_P3X-1">
          <mxGeometry relative="1" as="geometry">
            <mxPoint x="390" y="90" as="sourcePoint" />
            <mxPoint x="390" y="260" as="targetPoint" />
          </mxGeometry>
        </mxCell>
        <mxCell id="2vzIRdSAfPIQYPzG_P3X-6" value="" style="edgeStyle=orthogonalEdgeStyle;rounded=1;orthogonalLoop=1;jettySize=auto;html=1;" edge="1" parent="WIyWlLk6GJQsqaUBKTNV-1" source="2vzIRdSAfPIQYPzG_P3X-1" target="2vzIRdSAfPIQYPzG_P3X-5">
          <mxGeometry relative="1" as="geometry" />
        </mxCell>
        <mxCell id="2vzIRdSAfPIQYPzG_P3X-1" value="Generate a random word" style="html=1;fontSize=14;rounded=1;glass=0;strokeWidth=1;shadow=0;whiteSpace=wrap;" vertex="1" parent="WIyWlLk6GJQsqaUBKTNV-1">
          <mxGeometry x="337.5" y="140" width="105" height="50" as="geometry" />
        </mxCell>
        <mxCell id="2vzIRdSAfPIQYPzG_P3X-8" value="" style="edgeStyle=orthogonalEdgeStyle;rounded=1;orthogonalLoop=1;jettySize=auto;html=1;" edge="1" parent="WIyWlLk6GJQsqaUBKTNV-1" source="2vzIRdSAfPIQYPzG_P3X-5" target="2vzIRdSAfPIQYPzG_P3X-7">
          <mxGeometry relative="1" as="geometry" />
        </mxCell>
        <mxCell id="2vzIRdSAfPIQYPzG_P3X-5" value="Generate as many blanks as letters in word" style="html=1;fontSize=14;rounded=1;glass=0;strokeWidth=1;shadow=0;whiteSpace=wrap;" vertex="1" parent="WIyWlLk6GJQsqaUBKTNV-1">
          <mxGeometry x="310" y="250" width="160" height="50" as="geometry" />
        </mxCell>
        <mxCell id="2vzIRdSAfPIQYPzG_P3X-10" value="" style="edgeStyle=orthogonalEdgeStyle;rounded=1;orthogonalLoop=1;jettySize=auto;html=1;" edge="1" parent="WIyWlLk6GJQsqaUBKTNV-1" source="2vzIRdSAfPIQYPzG_P3X-7" target="2vzIRdSAfPIQYPzG_P3X-9">
          <mxGeometry relative="1" as="geometry" />
        </mxCell>
        <mxCell id="2vzIRdSAfPIQYPzG_P3X-7" value="Ask the user to guess a letter" style="html=1;fontSize=14;rounded=1;glass=0;strokeWidth=1;shadow=0;whiteSpace=wrap;" vertex="1" parent="WIyWlLk6GJQsqaUBKTNV-1">
          <mxGeometry x="330" y="375" width="120" height="35" as="geometry" />
        </mxCell>
        <mxCell id="2vzIRdSAfPIQYPzG_P3X-12" value="" style="edgeStyle=orthogonalEdgeStyle;rounded=1;orthogonalLoop=1;jettySize=auto;html=1;exitX=0.04;exitY=0.489;exitDx=0;exitDy=0;exitPerimeter=0;" edge="1" parent="WIyWlLk6GJQsqaUBKTNV-1" source="2vzIRdSAfPIQYPzG_P3X-9" target="2vzIRdSAfPIQYPzG_P3X-11">
          <mxGeometry relative="1" as="geometry" />
        </mxCell>
        <mxCell id="2vzIRdSAfPIQYPzG_P3X-17" value="Yes" style="edgeLabel;html=1;align=center;verticalAlign=middle;resizable=0;points=[];rounded=1;" vertex="1" connectable="0" parent="2vzIRdSAfPIQYPzG_P3X-12">
          <mxGeometry x="0.3658" relative="1" as="geometry">
            <mxPoint x="20" y="3" as="offset" />
          </mxGeometry>
        </mxCell>
        <mxCell id="2vzIRdSAfPIQYPzG_P3X-20" value="" style="edgeStyle=orthogonalEdgeStyle;rounded=1;orthogonalLoop=1;jettySize=auto;html=1;" edge="1" parent="WIyWlLk6GJQsqaUBKTNV-1">
          <mxGeometry relative="1" as="geometry">
            <mxPoint x="480" y="535" as="sourcePoint" />
            <mxPoint x="560" y="640" as="targetPoint" />
          </mxGeometry>
        </mxCell>
        <mxCell id="2vzIRdSAfPIQYPzG_P3X-21" value="No" style="edgeLabel;html=1;align=center;verticalAlign=middle;resizable=0;points=[];rounded=1;" vertex="1" connectable="0" parent="2vzIRdSAfPIQYPzG_P3X-20">
          <mxGeometry x="0.4378" y="1" relative="1" as="geometry">
            <mxPoint x="-21" y="12" as="offset" />
          </mxGeometry>
        </mxCell>
        <mxCell id="2vzIRdSAfPIQYPzG_P3X-9" value="Is the guessed letter in the word?" style="rhombus;html=1;fontSize=14;rounded=1;glass=0;strokeWidth=1;shadow=0;whiteSpace=wrap;" vertex="1" parent="WIyWlLk6GJQsqaUBKTNV-1">
          <mxGeometry x="290" y="490" width="200" height="90" as="geometry" />
        </mxCell>
        <mxCell id="2vzIRdSAfPIQYPzG_P3X-23" value="" style="edgeStyle=orthogonalEdgeStyle;rounded=1;orthogonalLoop=1;jettySize=auto;html=1;" edge="1" parent="WIyWlLk6GJQsqaUBKTNV-1" source="2vzIRdSAfPIQYPzG_P3X-11" target="2vzIRdSAfPIQYPzG_P3X-22">
          <mxGeometry relative="1" as="geometry" />
        </mxCell>
        <mxCell id="2vzIRdSAfPIQYPzG_P3X-11" value="Replace the blank with the letter" style="html=1;fontSize=14;rounded=1;glass=0;strokeWidth=1;shadow=0;whiteSpace=wrap;" vertex="1" parent="WIyWlLk6GJQsqaUBKTNV-1">
          <mxGeometry x="150" y="640" width="120" height="40" as="geometry" />
        </mxCell>
        <mxCell id="2vzIRdSAfPIQYPzG_P3X-25" value="" style="edgeStyle=orthogonalEdgeStyle;rounded=1;orthogonalLoop=1;jettySize=auto;html=1;" edge="1" parent="WIyWlLk6GJQsqaUBKTNV-1" source="2vzIRdSAfPIQYPzG_P3X-19" target="2vzIRdSAfPIQYPzG_P3X-24">
          <mxGeometry relative="1" as="geometry" />
        </mxCell>
        <mxCell id="2vzIRdSAfPIQYPzG_P3X-19" value="Lose a life" style="whiteSpace=wrap;html=1;fontSize=14;rounded=1;glass=0;strokeWidth=1;shadow=0;arcSize=13;" vertex="1" parent="WIyWlLk6GJQsqaUBKTNV-1">
          <mxGeometry x="510" y="640" width="100" height="40" as="geometry" />
        </mxCell>
        <mxCell id="2vzIRdSAfPIQYPzG_P3X-39" style="edgeStyle=elbowEdgeStyle;rounded=1;orthogonalLoop=1;jettySize=auto;elbow=vertical;html=1;entryX=0.5;entryY=0;entryDx=0;entryDy=0;" edge="1" parent="WIyWlLk6GJQsqaUBKTNV-1" source="2vzIRdSAfPIQYPzG_P3X-22" target="2vzIRdSAfPIQYPzG_P3X-27">
          <mxGeometry relative="1" as="geometry">
            <Array as="points">
              <mxPoint x="300" y="880" />
            </Array>
          </mxGeometry>
        </mxCell>
        <mxCell id="2vzIRdSAfPIQYPzG_P3X-46" value="Yes" style="edgeLabel;html=1;align=center;verticalAlign=middle;resizable=0;points=[];rounded=1;" vertex="1" connectable="0" parent="2vzIRdSAfPIQYPzG_P3X-39">
          <mxGeometry x="-0.8061" y="-1" relative="1" as="geometry">
            <mxPoint x="11" as="offset" />
          </mxGeometry>
        </mxCell>
        <mxCell id="2vzIRdSAfPIQYPzG_P3X-22" value="Are all the blanks filled?" style="rhombus;whiteSpace=wrap;html=1;fontSize=14;rounded=1;glass=0;strokeWidth=1;shadow=0;" vertex="1" parent="WIyWlLk6GJQsqaUBKTNV-1">
          <mxGeometry x="145" y="740" width="130" height="80" as="geometry" />
        </mxCell>
        <mxCell id="2vzIRdSAfPIQYPzG_P3X-40" style="edgeStyle=elbowEdgeStyle;rounded=1;orthogonalLoop=1;jettySize=auto;elbow=vertical;html=1;exitX=0.5;exitY=1;exitDx=0;exitDy=0;entryX=0.5;entryY=0;entryDx=0;entryDy=0;" edge="1" parent="WIyWlLk6GJQsqaUBKTNV-1" source="2vzIRdSAfPIQYPzG_P3X-24" target="2vzIRdSAfPIQYPzG_P3X-27">
          <mxGeometry relative="1" as="geometry">
            <mxPoint x="390" y="920" as="targetPoint" />
            <Array as="points">
              <mxPoint x="470" y="880" />
            </Array>
          </mxGeometry>
        </mxCell>
        <mxCell id="2vzIRdSAfPIQYPzG_P3X-43" value="Yes" style="edgeLabel;html=1;align=center;verticalAlign=middle;resizable=0;points=[];rounded=1;" vertex="1" connectable="0" parent="2vzIRdSAfPIQYPzG_P3X-40">
          <mxGeometry x="-0.8924" y="-1" relative="1" as="geometry">
            <mxPoint x="-9" y="4" as="offset" />
          </mxGeometry>
        </mxCell>
        <mxCell id="2vzIRdSAfPIQYPzG_P3X-24" value="Have they run out of lives?" style="rhombus;whiteSpace=wrap;html=1;fontSize=14;rounded=1;glass=0;strokeWidth=1;shadow=0;arcSize=13;" vertex="1" parent="WIyWlLk6GJQsqaUBKTNV-1">
          <mxGeometry x="510" y="750" width="100" height="80" as="geometry" />
        </mxCell>
        <mxCell id="2vzIRdSAfPIQYPzG_P3X-41" style="edgeStyle=orthogonalEdgeStyle;rounded=1;orthogonalLoop=1;jettySize=auto;html=1;entryX=0;entryY=0.5;entryDx=0;entryDy=0;elbow=vertical;exitX=0;exitY=0.5;exitDx=0;exitDy=0;" edge="1" parent="WIyWlLk6GJQsqaUBKTNV-1" source="2vzIRdSAfPIQYPzG_P3X-22" target="2vzIRdSAfPIQYPzG_P3X-7">
          <mxGeometry relative="1" as="geometry">
            <Array as="points">
              <mxPoint x="100" y="780" />
              <mxPoint x="100" y="393" />
            </Array>
          </mxGeometry>
        </mxCell>
        <mxCell id="2vzIRdSAfPIQYPzG_P3X-47" value="No" style="edgeLabel;html=1;align=center;verticalAlign=middle;resizable=0;points=[];rounded=1;" vertex="1" connectable="0" parent="2vzIRdSAfPIQYPzG_P3X-41">
          <mxGeometry x="-0.9245" y="1" relative="1" as="geometry">
            <mxPoint y="9" as="offset" />
          </mxGeometry>
        </mxCell>
        <mxCell id="2vzIRdSAfPIQYPzG_P3X-42" style="edgeStyle=orthogonalEdgeStyle;rounded=1;orthogonalLoop=1;jettySize=auto;html=1;entryX=1;entryY=0.5;entryDx=0;entryDy=0;elbow=vertical;exitX=0.987;exitY=0.45;exitDx=0;exitDy=0;exitPerimeter=0;" edge="1" parent="WIyWlLk6GJQsqaUBKTNV-1" source="2vzIRdSAfPIQYPzG_P3X-24" target="2vzIRdSAfPIQYPzG_P3X-7">
          <mxGeometry relative="1" as="geometry">
            <Array as="points">
              <mxPoint x="660" y="786" />
              <mxPoint x="660" y="393" />
            </Array>
          </mxGeometry>
        </mxCell>
        <mxCell id="2vzIRdSAfPIQYPzG_P3X-27" value="Game over" style="whiteSpace=wrap;html=1;fontSize=14;rounded=1;glass=0;strokeWidth=1;shadow=0;" vertex="1" parent="WIyWlLk6GJQsqaUBKTNV-1">
          <mxGeometry x="322.5" y="950" width="120" height="60" as="geometry" />
        </mxCell>
        <mxCell id="2vzIRdSAfPIQYPzG_P3X-48" value="No" style="edgeLabel;html=1;align=center;verticalAlign=middle;resizable=0;points=[];rounded=1;" vertex="1" connectable="0" parent="WIyWlLk6GJQsqaUBKTNV-1">
          <mxGeometry x="629.9966666666667" y="800" as="geometry">
            <mxPoint x="2" y="-1" as="offset" />
          </mxGeometry>
        </mxCell>
      </root>
    </mxGraphModel>
  </diagram>
</mxfile>
